<svg width="16" height="16" viewBox="0 0 16 16" fill="none" xmlns="http://www.w3.org/2000/svg">
<g id="Frame 534811430" clip-path="url(#clip0_1_1871)">
<g id="Group 534811433">
<path id="Union" fill-rule="evenodd" clip-rule="evenodd" d="M11.7546 5.52374C12.0963 5.86545 12.0963 6.41947 11.7546 6.76117L7.68958 10.8262C7.34787 11.1679 6.79385 11.1679 6.45214 10.8262L4.41961 8.7937C4.0779 8.45199 4.0779 7.89797 4.41961 7.55626C4.76132 7.21456 5.31534 7.21456 5.65705 7.55626L7.07086 8.97007L10.5172 5.52374C10.8589 5.18203 11.4129 5.18203 11.7546 5.52374Z" fill="white"/>
<path id="Subtract" fill-rule="evenodd" clip-rule="evenodd" d="M9.42684 1.57772C8.83451 0.540753 7.33935 0.540753 6.74703 1.57772C6.37293 2.23265 5.58021 2.52118 4.87266 2.25994C3.75236 1.84631 2.60699 2.80738 2.8198 3.98249C2.9542 4.72466 2.53241 5.45523 1.82247 5.70992C0.698395 6.11317 0.438762 7.58563 1.35712 8.34902C1.93714 8.83116 2.08363 9.66194 1.70349 10.3134C1.10161 11.3448 1.84919 12.6397 3.0434 12.6342C3.79763 12.6307 4.44386 13.1729 4.5714 13.9163C4.77334 15.0933 6.17833 15.6047 7.0896 14.8329C7.66514 14.3454 8.50873 14.3454 9.08426 14.8329C9.99553 15.6047 11.4005 15.0933 11.6025 13.9163C11.73 13.1729 12.3762 12.6307 13.1305 12.6342C14.3247 12.6397 15.0723 11.3448 14.4704 10.3134C14.0902 9.66194 14.2367 8.83116 14.8167 8.34902C15.7351 7.58563 15.4755 6.11317 14.3514 5.70992C13.6415 5.45523 13.2197 4.72466 13.3541 3.98249C13.5669 2.80738 12.4215 1.84631 11.3012 2.25994C10.5937 2.52118 9.80094 2.23265 9.42684 1.57772ZM11.7544 6.76128C12.0961 6.41957 12.0961 5.86555 11.7544 5.52384C11.4127 5.18214 10.8587 5.18214 10.517 5.52384L7.07067 8.97018L5.65686 7.55637C5.31515 7.21466 4.76113 7.21466 4.41942 7.55637C4.07772 7.89808 4.07772 8.4521 4.41942 8.79381L6.45195 10.8263C6.61604 10.9904 6.8386 11.0826 7.07067 11.0826C7.30273 11.0826 7.52529 10.9904 7.68939 10.8263L11.7544 6.76128Z" fill="#27C07D"/>
</g>
</g>
<defs>
<clipPath id="clip0_1_1871">
<rect width="16" height="16" fill="white"/>
</clipPath>
</defs>
</svg>
