<svg width="16" height="16" viewBox="0 0 16 16" fill="none" xmlns="http://www.w3.org/2000/svg">
<g id="Icon /&#240;&#159;&#145;&#129;Eye/16x16/View">
<g id="Union">
<path d="M7.99995 9.66667C8.92042 9.66667 9.66662 8.92048 9.66662 8C9.66662 7.07953 8.92042 6.33333 7.99995 6.33333C7.07948 6.33333 6.33328 7.07953 6.33328 8C6.33328 8.92048 7.07948 9.66667 7.99995 9.66667Z" fill="#BAC5CB"/>
<path fill-rule="evenodd" clip-rule="evenodd" d="M7.99995 12.5C10.0195 12.5 11.638 11.4006 12.7212 10.3607C13.2676 9.8362 13.6924 9.31318 13.9807 8.92141C14.1406 8.70423 14.2892 8.48057 14.4318 8.25194C14.5227 8.09625 14.5227 7.90375 14.4318 7.74806C14.2961 7.51604 14.1399 7.29481 13.9807 7.07859C13.6924 6.68682 13.2676 6.1638 12.7212 5.63931C11.638 4.59942 10.0195 3.5 7.99995 3.5C5.98039 3.5 4.3619 4.59942 3.27868 5.63931C2.73234 6.1638 2.30755 6.68682 2.01916 7.07859C1.85929 7.29577 1.71073 7.51943 1.56806 7.74806C1.4779 7.90262 1.47821 8.09829 1.56851 8.2527C1.70434 8.48434 1.86014 8.70539 2.01916 8.92141C2.30755 9.31318 2.73234 9.8362 3.27868 10.3607C4.3619 11.4006 5.98039 12.5 7.99995 12.5ZM10.6666 8C10.6666 9.47276 9.47271 10.6667 7.99995 10.6667C6.52719 10.6667 5.33328 9.47276 5.33328 8C5.33328 6.52724 6.52719 5.33333 7.99995 5.33333C9.47271 5.33333 10.6666 6.52724 10.6666 8ZM7.99995 9.66667C8.92042 9.66667 9.66662 8.92048 9.66662 8C9.66662 7.07953 8.92042 6.33333 7.99995 6.33333C7.07948 6.33333 6.33328 7.07953 6.33328 8C6.33328 8.92048 7.07948 9.66667 7.99995 9.66667Z" fill="#BAC5CB"/>
</g>
</g>
</svg>
