<svg width="24" height="24" viewBox="0 0 24 24" fill="none" xmlns="http://www.w3.org/2000/svg">
<g id="Frame 534811475">
<path id="Shape" fill-rule="evenodd" clip-rule="evenodd" d="M18.9996 15.4817V17.5892C19.0012 17.9849 18.8356 18.3628 18.5435 18.6303C18.2514 18.8977 17.8598 19.0299 17.465 18.9943C15.299 18.7594 13.2183 18.0207 11.3902 16.8376C9.68945 15.7589 8.24749 14.3198 7.16674 12.6224C5.97711 10.7897 5.23677 8.70305 5.00572 6.53157C4.97015 6.13877 5.10164 5.74913 5.36807 5.45785C5.6345 5.16656 6.01133 5.00044 6.40651 5.00007H8.51826C9.22489 4.99313 9.82719 5.51008 9.92609 6.20841C10.0152 6.88287 10.1805 7.54511 10.4188 8.18249C10.6122 8.69595 10.4885 9.27477 10.1021 9.66481L9.20809 10.557C10.2102 12.3158 11.6693 13.7721 13.4316 14.7721L14.3256 13.8799C14.7164 13.4942 15.2963 13.3708 15.8108 13.5638C16.4495 13.8016 17.113 13.9666 17.7888 14.0556C18.4967 14.1552 19.0173 14.7685 18.9996 15.4817Z" stroke="#0445A3" stroke-width="1.5" stroke-linecap="round" stroke-linejoin="round"/>
</g>
</svg>
