<svg width="8" height="16" viewBox="0 0 8 16" fill="none" xmlns="http://www.w3.org/2000/svg">
<g id="share 2">
<path id="Subtract" fill-rule="evenodd" clip-rule="evenodd" d="M0 7.00024C0 4.79111 1.79086 3.00024 4 3.00024C6.20914 3.00024 8 4.79111 8 7.00024C8 8.86408 6.72523 10.4302 5 10.8742V13.0002C5 13.5525 4.55228 14.0002 4 14.0002C3.44772 14.0002 3 13.5525 3 13.0002L3 10.8742C1.27477 10.4302 0 8.86408 0 7.00024ZM2 7.00024C2 5.89567 2.89543 5.00024 4 5.00024C5.10457 5.00024 6 5.89567 6 7.00024C6 8.10481 5.10457 9.00024 4 9.00024C2.89543 9.00024 2 8.10481 2 7.00024Z" fill="#0445A3"/>
</g>
</svg>
