<svg width="16" height="16" viewBox="0 0 16 16" fill="none" xmlns="http://www.w3.org/2000/svg">
<g id="Frame 534811431" clip-path="url(#clip0_1_1878)">
<path id="Subtract" fill-rule="evenodd" clip-rule="evenodd" d="M1.60001 2.64554V6.79792C1.60001 13.2572 7.33171 15.3334 7.82858 15.3334C8.32544 15.3334 14.0571 13.2572 14.0571 6.79792V2.64554C14.0571 2.64554 8.75133 0.800034 7.82858 0.800034C6.90583 0.800034 1.60001 2.64554 1.60001 2.64554ZM7.82858 4.5585C7.86591 4.5585 7.89617 4.52824 7.89617 4.49091C7.89617 4.45358 7.86591 4.42332 7.82858 4.42332C7.79125 4.42332 7.76099 4.45358 7.76099 4.49091C7.76099 4.52824 7.79125 4.5585 7.82858 4.5585ZM7.82858 3.6835C7.38266 3.6835 7.02117 4.04499 7.02117 4.49091C7.02117 4.93683 7.38266 5.29832 7.82858 5.29832C8.2745 5.29832 8.63599 4.93683 8.63599 4.49091C8.63599 4.04499 8.2745 3.6835 7.82858 3.6835ZM7.82867 12.2866C7.34543 12.2866 6.95367 11.8949 6.95367 11.4116V7.72061C6.95367 7.23736 7.34543 6.84561 7.82868 6.84561C8.31192 6.84561 8.70367 7.23736 8.70367 7.72061V11.4116C8.70367 11.8949 8.31192 12.2866 7.82867 12.2866Z" fill="#27C07D"/>
<path id="Union" fill-rule="evenodd" clip-rule="evenodd" d="M7.8961 4.49103C7.8961 4.52836 7.86584 4.55862 7.8285 4.55862C7.79117 4.55862 7.76091 4.52836 7.76091 4.49103C7.76091 4.4537 7.79117 4.42344 7.8285 4.42344C7.86584 4.42344 7.8961 4.4537 7.8961 4.49103ZM7.0211 4.49103C7.0211 4.04511 7.38259 3.68362 7.8285 3.68362C8.27442 3.68362 8.63591 4.04511 8.63591 4.49103C8.63591 4.93695 8.27442 5.29844 7.8285 5.29844C7.38259 5.29844 7.0211 4.93695 7.0211 4.49103ZM6.9536 11.4117C6.9536 11.895 7.34535 12.2867 7.8286 12.2867C8.31185 12.2867 8.7036 11.895 8.7036 11.4117V7.72073C8.7036 7.23748 8.31185 6.84573 7.8286 6.84573C7.34535 6.84573 6.9536 7.23748 6.9536 7.72073V11.4117Z" fill="white"/>
</g>
<defs>
<clipPath id="clip0_1_1878">
<rect width="16" height="16" fill="white"/>
</clipPath>
</defs>
</svg>
